<svg height="24" viewBox="0 0 24 24" width="24" xmlns="http://www.w3.org/2000/svg"><g fill="#15151e" fill-rule="evenodd"><path d="m4.09725133 8.92741349 1.41425097 1.41461161c-.42363912.4410668-.79932049.8895749-1.10234054 1.3106211l-.10947796.1556837-.1276838.1906701.1276838.1926701.10947796.1556837c.47296781.6571885 1.12295615 1.3812808 1.85602732 2.0395543 1.82664292 1.6402644 3.83983162 2.6130919 5.73481092 2.6130919l.167-.004 1.76464 1.7651513c-.6249911.1529517-1.2708304.2388487-1.93164.2388487-3.3137085 0-6.2509668-2.16-8.07058008-4.104l-.31835813-.3505455c-.05095208-.0578512-.10083661-.1153719-.14963296-.1724958l-.27955495-.3374546c-.04436114-.0552727-.08759285-.1100165-.1296745-.1641653l-.23852429-.3172231-.20993303-.2997686c-.03255124-.0483306-.06386992-.0958016-.09393542-.1423471l-.1651899-.2676364c-.22473266-.3832066-.34461674-.6807272-.34461674-.8443636 0-.2181818.21312726-.6743802.60374206-1.2543471l.20993303-.2997686.23852429-.3172231c.04208165-.0541488.08531336-.1088926.1296745-.16416533l.27955495-.33745455c.19500152-.22828061.40738111-.46289637.6358225-.69962783zm7.90274867-3.92741349c3.6149547 0 6.7819026 2.57057851 8.5385712 4.62704132l.2795549.33745455c.0443612.05527273.0875929.11001653.1296745.16416533l.2385243.3172231.209933.2997686c.3906148.5799669.6037421 1.0361653.6037421 1.2543471 0 .1636364-.1198841.461157-.3446167.8443636l-.1651899.2676364c-.0300655.0465455-.0613842.0940165-.0939355.1423471l-.209933.2997686-.2385243.3172231c-.0420816.0541488-.0853133.1088926-.1296745.1641653l-.2795549.3374546c-1.0663287 1.248309-2.6523033 2.6860544-4.5426946 3.6232889l-1.5113236-1.5110674c1.1064056-.4446535 2.2086601-1.162952 3.2502579-2.0982721.7330712-.6582735 1.3830595-1.3823658 1.8560273-2.0395543l.109478-.1556837.1266838-.1926701-.1266838-.1906701-.109478-.1556837c-.4729678-.6571885-1.1229561-1.3812808-1.8560273-2.03955429-1.8266429-1.64026441-3.8398316-2.61309191-5.7348109-2.61309191-1.6445459 0-3.37812168.73268776-5.00153338 1.99845419l-1.42372885-1.42279832c1.73777522-1.39844515 3.97893511-2.57565587 6.42526223-2.57565587z" fill-rule="nonzero"/><g fill-rule="nonzero" transform="matrix(.70710678 .70710678 -.70710678 .70710678 4.897673 4.069246)"><path d="m20.0002503.00463953v2h-20.0002503v-2z"/><path d="m22.0442071 0-.0001559.02523554c-.0135144 1.09294006-.9036987 1.97476446-1.9998441 1.97476446l.025-.001-.0500675.00084613c-1.0429558-.01281036-1.8937035-.82393709-1.9694467-1.85058378l-.0054858-.14926235z"/></g><path d="m12 10c.5522847 0 1.0522847.2238576 1.4142136.5857864.3619288.3619289.5857864.8619289.5857864 1.4142136 0 .360252-.095276.6982288-.2619602.9901686l-.0120398.0188314-.1273783-.0841082c-.5063832-.3495828-.8899194-.7034048-1.2397204-1.0673704l-.1725018-.1828554c-.4830644-.520572-.9293462-1.0634835-1.1986713-1.4945555l.0872718.1328895.0847786-.0635829c.2109915-.143375.4430362-.220998.6901747-.2428897z" stroke="#15151e" stroke-width="2"/></g></svg>